<?xml version="1.0" standalone="no"?>
<!DOCTYPE svg PUBLIC "-//W3C//DTD SVG 20010904//EN"
 "http://www.w3.org/TR/2001/REC-SVG-20010904/DTD/svg10.dtd">
<svg version="1.0" xmlns="http://www.w3.org/2000/svg"
 width="1024.000000pt" height="576.000000pt" viewBox="0 0 1024.000000 576.000000"
 preserveAspectRatio="xMidYMid meet">

<g transform="translate(0.000000,576.000000) scale(0.100000,-0.100000)"
fill="#000000" stroke="none">
<path d="M0 2880 l0 -2880 5120 0 5120 0 0 2880 0 2880 -5120 0 -5120 0 0
-2880z m4620 1785 l0 -365 -385 0 -385 0 0 358 c0 197 3 362 7 365 3 4 177 7
385 7 l378 0 0 -365z m890 0 l0 -365 -385 0 -385 0 0 365 0 365 385 0 385 0 0
-365z m888 -2 l2 -363 -385 0 -385 0 0 365 0 365 383 -2 382 -3 3 -362z m100
-624 l42 -18 0 -60 0 -61 -45 32 c-80 57 -201 47 -226 -18 -17 -45 13 -88 100
-141 112 -69 157 -107 181 -159 46 -94 8 -209 -85 -254 -62 -30 -167 -25 -240
12 l-50 24 -3 68 -3 69 46 -41 c56 -49 102 -66 163 -59 85 9 118 85 67 153
-14 18 -63 55 -109 83 -98 59 -152 115 -162 166 -32 172 141 282 324 204z
m-2498 -255 l235 -271 3 274 2 273 50 0 50 0 0 -355 0 -355 -47 0 -48 0 -230
265 -230 266 -3 -266 -2 -265 -50 0 -50 0 0 356 0 355 42 -3 c43 -3 45 -5 278
-274z m920 226 l0 -50 -150 0 -150 0 0 -105 0 -105 145 0 145 0 0 -45 0 -45
-145 0 -145 0 0 -110 0 -110 155 0 155 0 0 -45 0 -45 -205 0 -205 0 0 355 0
355 200 0 200 0 0 -50z m300 -186 c52 -129 97 -237 100 -239 4 -2 49 103 101
233 l95 237 49 0 50 0 90 -222 c50 -123 95 -230 100 -238 8 -12 32 41 105 225
l95 240 48 0 c46 0 49 -1 43 -22 -3 -13 -66 -174 -140 -358 -83 -208 -139
-335 -148 -335 -8 0 -54 101 -118 261 -58 143 -110 271 -116 284 -9 21 -24
-10 -125 -261 -66 -163 -121 -284 -128 -284 -12 0 -291 672 -291 702 0 9 14
13 48 13 l48 0 94 -236z m1350 -1009 l0 -35 -1445 0 -1445 0 0 35 0 35 1445 0
1445 0 0 -35z m-2246 -951 c31 -31 13 -74 -31 -74 -21 0 -43 25 -43 49 0 14
29 41 45 41 7 0 21 -7 29 -16z m149 -5 c20 -27 10 -58 -19 -65 -30 -8 -54 11
-54 40 0 46 48 62 73 25z m-433 -134 l0 -35 -90 0 -90 0 0 -230 0 -230 -40 0
-40 0 0 230 0 230 -90 0 -90 0 0 28 c0 16 3 32 7 35 3 4 102 7 220 7 l213 0 0
-35z m2055 24 c87 -22 95 -28 95 -70 0 -22 -2 -39 -4 -39 -2 0 -19 7 -39 15
-117 49 -216 39 -283 -29 -69 -68 -79 -152 -31 -239 52 -94 199 -120 320 -57
20 11 40 20 42 20 3 0 5 -18 5 -40 0 -48 -21 -62 -120 -80 -36 -7 -69 -16 -73
-20 -5 -4 3 -19 18 -34 45 -46 10 -105 -69 -113 -44 -5 -46 -5 -46 21 0 20 5
26 23 26 12 0 28 4 36 9 19 12 6 41 -18 41 -18 0 -19 3 -11 26 15 38 14 39
-37 52 -67 18 -145 98 -167 171 -20 68 -20 94 0 162 20 67 98 148 165 172 52
18 138 21 194 6z m-1875 -174 c0 -210 7 -236 72 -265 52 -24 95 -25 147 -4 71
28 76 44 79 257 l4 187 40 0 41 0 -5 -187 c-3 -108 -11 -201 -18 -218 -30 -77
-104 -119 -210 -120 -99 0 -163 30 -200 96 -24 42 -25 53 -28 237 l-4 192 41
0 41 0 0 -175z m749 160 c16 -8 40 -28 55 -45 47 -56 28 -167 -35 -200 l-21
-12 30 -31 c16 -18 57 -74 91 -124 l62 -93 -46 0 -45 0 -54 83 c-67 103 -101
135 -146 139 l-35 3 -3 -112 -3 -113 -34 0 -35 0 0 260 0 260 95 0 c65 0 105
-5 124 -15z m361 -97 l1 -113 107 113 107 113 45 -3 45 -3 -107 -117 c-60 -64
-108 -119 -108 -123 0 -3 62 -66 138 -140 l137 -134 -53 -1 -54 0 -129 127
-129 126 0 -126 0 -127 -40 0 -40 0 0 260 0 260 40 0 40 0 0 -112z m1298 80
l-3 -33 -107 -3 -108 -3 0 -74 0 -75 105 0 105 0 0 -35 0 -35 -105 0 -105 0 0
-80 0 -80 115 0 115 0 0 -35 0 -35 -155 0 -155 0 0 260 0 260 151 0 150 0 -3
-32z"/>
<path d="M4060 4659 l0 -261 128 4 c145 4 191 20 229 77 42 62 19 140 -51 182
l-34 20 29 29 c58 58 28 161 -58 196 -20 9 -71 14 -138 14 l-105 0 0 -261z
m220 161 c26 -26 25 -58 -2 -87 -17 -18 -32 -23 -75 -23 l-53 0 0 65 0 65 55
0 c42 0 60 -5 75 -20z m3 -201 c21 -5 44 -21 54 -36 15 -23 15 -28 2 -52 -21
-37 -55 -51 -126 -51 l-63 0 0 75 0 75 48 0 c26 0 64 -5 85 -11z"/>
<path d="M4940 4659 l0 -262 133 5 c110 4 139 8 174 26 50 26 76 69 75 126 -1
53 -31 91 -100 122 -2 1 8 13 22 27 59 59 37 154 -44 195 -38 19 -60 22 -152
22 l-108 0 0 -261z m222 164 c10 -9 18 -30 18 -49 0 -44 -30 -64 -97 -64 l-53
0 0 65 0 65 57 0 c38 0 62 -5 75 -17z m10 -203 c42 -12 61 -38 56 -78 -4 -40
-57 -63 -133 -60 l-60 3 -3 59 c-2 32 -1 65 2 72 6 17 84 19 138 4z"/>
<path d="M5959 4917 c-111 -31 -187 -107 -208 -208 -28 -128 60 -264 193 -300
56 -15 201 -6 254 16 41 17 42 19 42 62 0 39 -2 44 -17 38 -177 -77 -328 -49
-372 68 -40 106 24 219 138 247 61 15 115 8 194 -24 l58 -24 -3 46 -3 47 -54
18 c-73 24 -165 30 -222 14z"/>
<path d="M4820 1610 l0 -80 53 0 c62 0 97 27 97 74 0 56 -40 86 -116 86 l-34
0 0 -80z"/>
</g>
</svg>
